<?xml version="1.0" encoding="utf-8"?>
<!-- Generator: Adobe Illustrator 27.6.1, SVG Export Plug-In . SVG Version: 6.00 Build 0)  -->
<svg version="1.1" id="Ebene_1" xmlns="http://www.w3.org/2000/svg" xmlns:xlink="http://www.w3.org/1999/xlink" x="0px" y="0px"
	 viewBox="0 0 1024 1024" style="enable-background:new 0 0 1024 1024;" xml:space="preserve">
<style type="text/css">
	.st0{fill:#3D3D3D;}
</style>
<g id="icomoon-ignore">
</g>
<g>
	<path class="st0" d="M550.5,972c-22.7,0-45.4-1.7-68-5.2c-51.6-8-101.1-24.8-147.2-50.1c-4.2-2.3-7.1-6.5-7.9-11.2s0.7-9.6,4-13.1
		c25.1-27.1,52.9-53.2,85.2-79.7c4.5-3.7,10.6-4.6,15.9-2.4c57.9,24,121,29.7,182.4,16.7c81-17.2,150.5-64.8,195.6-134.2
		c45.2-69.4,60.6-152.2,43.4-233.2c-17.2-81-64.8-150.5-134.2-195.6c-69.4-45.2-152.2-60.6-233.2-43.4
		c-81,17.2-150.5,64.8-195.6,134.2c-42.7,65.6-58.8,143.2-45.9,219.9l76-12.9c6.1-1,12.3,1.6,15.7,6.8c3.4,5.2,3.5,11.9,0.1,17.1
		L217.9,770.4c-2.4,3.7-6.3,6.3-10.7,7c-4.4,0.7-8.9-0.5-12.3-3.3l-168.3-136c-4.8-3.9-6.9-10.2-5.3-16.1c1.6-6,6.5-10.4,12.5-11.5
		l74.9-12.7c-9.1-53.8-8.3-107.9,2.3-161.2c11.2-56.6,33-109.9,64.8-158.4c31.8-48.5,71.9-89.8,119.3-122.7
		c49.1-34.1,103.9-57.7,162.8-70.2c59.2-12.5,119.1-13.1,178-1.7c56.9,11,110.5,32.7,159.3,64.5s90.3,71.9,123.5,119.5
		c34.3,49.2,58.1,104.2,70.6,163.4c12.5,59.2,13.1,119.1,1.7,178c-11,56.9-32.7,110.5-64.5,159.3s-71.9,90.3-119.5,123.5
		c-49.2,34.3-104.2,58.1-163.4,70.6C612.7,968.7,581.6,972,550.5,972z M368.6,898.6c37.6,18.3,77.4,30.8,118.7,37.2
		c49.7,7.7,100.1,6.3,149.8-4.3c55.1-11.7,106.2-33.8,152-65.7c44.2-30.8,81.6-69.5,111.1-114.9c29.5-45.4,49.7-95.2,60-148.2
		c10.6-54.8,10.1-110.5-1.6-165.5c-11.7-55.1-33.8-106.2-65.7-152c-30.8-44.2-69.5-81.6-114.9-111.1c-45.4-29.5-95.2-49.7-148.2-60
		c-54.8-10.6-110.5-10.1-165.5,1.6c-54.8,11.6-105.8,33.6-151.4,65.3c-44.1,30.6-81.4,69-111,114.2c-29.5,45.1-49.8,94.7-60.3,147.3
		c-10.8,54.5-10.6,109.9,0.6,164.8c0.9,4.2,0,8.5-2.4,12s-6.1,5.9-10.3,6.6l-56.4,9.6L201,738.8l90.1-140.3l-56.1,9.5
		c-8.2,1.4-16.1-3.9-17.9-12.1l-0.1-0.2c-0.1-0.4-0.2-0.9-0.3-1.3c-9.5-45.1-10-90.7-1.3-135.5c8.4-43.3,24.9-84.1,49.1-121.3
		c24.2-37.2,54.8-68.8,91-94c37.5-26.1,79.3-44.2,124.4-53.8c45.1-9.5,90.7-10,135.5-1.3c43.3,8.4,84.1,24.9,121.3,49.1
		c37.2,24.2,68.8,54.8,94,91c26.1,37.5,44.2,79.3,53.8,124.4c9.5,45.1,10,90.7,1.3,135.5c-8.4,43.3-24.9,84.1-49.1,121.3
		c-24.2,37.2-54.8,68.8-91,94c-37.5,26.1-79.3,44.2-124.4,53.8c-64.6,13.7-130.8,8.5-192.1-14.9C407.1,861.3,387,879.8,368.6,898.6z
		"/>
</g>
</svg>
