<?xml version="1.0" encoding="utf-8"?>
<!-- Generator: Adobe Illustrator 27.6.1, SVG Export Plug-In . SVG Version: 6.00 Build 0)  -->
<svg version="1.1" id="Ebene_1" xmlns="http://www.w3.org/2000/svg" xmlns:xlink="http://www.w3.org/1999/xlink" x="0px" y="0px"
	 viewBox="0 0 1024 1024" style="enable-background:new 0 0 1024 1024;" xml:space="preserve">
<style type="text/css">
	.st0{fill:#D50853;}
</style>
<g id="icomoon-ignore">
</g>
<g>
	<path class="st0" d="M193.5,967.5c-18.2-5-36-10.7-51.1-22.8c-28-22.4-43.4-51.2-43.4-87.2c-0.2-180.9,0.6-361.8-0.5-542.7
		c-0.3-56.4,43.2-113.3,111.2-114.2c7.6-0.1,15.2-0.3,22.7,0.4c16.9,1.6,28.5,14.8,27.9,31c-0.5,16.1-13.1,28.8-29.7,29.7
		c-6.6,0.4-13.2,0-19.9,0.1c-29.2,0.3-50.5,21.3-51.3,50.5c-0.1,2.2,0,4.4,0,6.6c0,176.8,0,353.6,0,530.5
		c0,37.4,20.4,57.6,57.9,57.6c163.3,0,326.5,0,489.8,0c37.4,0,57.6-20.4,57.6-57.9c0-4.1,0-8.2,0-12.3c0.2-17.7,13-30.8,30.2-30.8
		c17,0,29.8,13.2,30.4,30.7c0.9,26.1-0.6,51.6-14.5,74.8c-17.2,28.9-42.1,47-75,54.1c-1.8,0.4-3.4,1.3-5.1,1.9
		C551.6,967.5,372.5,967.5,193.5,967.5z"/>
	<path class="st0" d="M948.4,420.1c0,82.6,0.1,165.2,0,247.7c-0.1,47.8-20.9,83.9-64.3,104.6c-13.7,6.5-30.2,10.3-45.4,10.4
		c-142.5,0.8-284.9,0.5-427.4,0.4c-59-0.1-108.8-50.1-108.8-109.3c-0.1-168.9-0.1-337.9,0-506.8C302.5,106.7,352,57,412.3,57
		c140.3-0.1,280.5,0.9,420.8-0.5c58.2-0.6,115.8,44.6,115.4,115C948,254.4,948.4,337.3,948.4,420.1z M887.1,420.1
		c0-82.9,0-165.8,0-248.7c0-32.7-21-53.9-53.6-53.9c-138.7-0.1-277.4-0.1-416.1,0c-33,0-54.4,21.5-54.4,54.4
		c-0.1,165.5-0.1,331,0,496.4c0,33,21.5,54.4,54.5,54.4c138.4,0.1,276.8-0.2,415.1,0.2c34.8,0.1,55.2-26,54.9-55.1
		C886.5,585.3,887.1,502.7,887.1,420.1z"/>
</g>
</svg>
