<?xml version="1.0" encoding="utf-8"?>
<!-- Generator: Adobe Illustrator 27.6.1, SVG Export Plug-In . SVG Version: 6.00 Build 0)  -->
<svg version="1.1" id="Ebene_1" xmlns="http://www.w3.org/2000/svg" xmlns:xlink="http://www.w3.org/1999/xlink" x="0px" y="0px"
	 viewBox="0 0 1024 1024" style="enable-background:new 0 0 1024 1024;" xml:space="preserve">
<style type="text/css">
	.st0{fill:none;}
	.st1{fill:#3D3D3D;}
</style>
<g id="icomoon-ignore">
</g>
<g>
	<path class="st0" d="M345.7,95.4c0.9,4.8,1.8,8.9,2.2,12.4c2.4,18.5,17.2,37.1,44.8,37.1h253.5c14.4,0,39.2-4.4,43.2-34
		c0.6-4.1,1.6-9.1,2.8-14.8c1.7-8.2,3.8-18.3,4.8-27.3H341.7c0,0.5,0.1,1,0.1,1.5C342.4,78.7,344.2,88,345.7,95.4z"/>
	<path class="st0" d="M727.4,103.6c-1,4.9-2,9.4-2.4,12.2c-2.8,21.2-12.8,38.6-28.8,50.2c-13.6,9.8-30.9,15-50,15H392.7
		c-34.4,0-74.3-21.4-80.4-68.5c-0.3-2.3-1.1-6.1-1.8-10.1c-2-10.1-4.3-22-4.8-33.5H150.5V978H881V68.9H733.1
		C732.2,79.5,730,91.2,727.4,103.6z M281.2,301.2l303.6-4.2c0.1,0,0.2,0,0.3,0c9.8,0,17.9,7.9,18,17.8c0.1,9.9-7.8,18.1-17.7,18.2
		l-303.6,4.2c-0.1,0-0.2,0-0.3,0c-9.8,0-17.9-7.9-18-17.8C263.3,309.5,271.2,301.3,281.2,301.2z M263.5,413.2
		c-0.1-9.9,7.8-18.1,17.8-18.2l222.3-3c10-0.1,18.1,7.8,18.2,17.8c0.1,9.9-7.8,18.1-17.8,18.2l-222.3,3c-0.1,0-0.2,0-0.2,0
		C271.7,431,263.6,423.1,263.5,413.2z M292.5,523.3c-9.8,0-17.9-7.9-18-17.7c-0.1-9.9,7.8-18.1,17.7-18.3l303.6-4.3
		c0.1,0,0.2,0,0.3,0c9.8,0,17.9,7.9,18,17.7c0.1,9.9-7.8,18.1-17.7,18.3l-303.6,4.3C292.7,523.3,292.6,523.3,292.5,523.3z
		 M775.9,446.5c12.7,8.3,16.3,25.3,8,38.1L529.6,875.1L391,753.7c-11.4-10-12.6-27.4-2.6-38.8c10-11.4,27.4-12.6,38.8-2.6l90.9,79.6
		l219.7-337.3C746.1,441.8,763.2,438.3,775.9,446.5z"/>
	<path class="st1" d="M896,32.9H726.3c-0.5-0.8-1.1-1.6-1.7-2.3c-6-7.4-14.9-11.5-25.1-11.5l-359.2,3.2c-12.5,0-20.3,5.5-24.8,10.6
		h-180c-11.6,0-21,9.4-21,21V993c0,11.6,9.4,21,21,21H896c11.6,0,21-9.4,21-21V53.9C917,42.3,907.6,32.9,896,32.9z M696.9,68.9
		c-0.9,9-3,19.1-4.8,27.3c-1.2,5.7-2.3,10.7-2.8,14.8c-3.9,29.6-28.7,34-43.2,34H392.7c-27.6,0-42.3-18.6-44.8-37.1
		c-0.5-3.5-1.3-7.6-2.2-12.4c-1.5-7.5-3.3-16.8-4-25c0-0.5-0.1-1-0.1-1.5H696.9z M881,978H150.5V68.9h155.1
		c0.5,11.5,2.8,23.4,4.8,33.5c0.8,4,1.5,7.8,1.8,10.1c6.1,47,46,68.5,80.4,68.5h253.5c19.1,0,36.4-5.2,50-15
		c16-11.6,26-28.9,28.8-50.2c0.4-2.8,1.3-7.4,2.4-12.2c2.6-12.4,4.8-24.1,5.7-34.7H881V978z"/>
	<path class="st1" d="M281.4,337.2c0.1,0,0.2,0,0.3,0l303.6-4.2c9.9-0.1,17.9-8.3,17.7-18.2c-0.1-9.9-8.2-17.8-18-17.8
		c-0.1,0-0.2,0-0.3,0l-303.6,4.2c-9.9,0.1-17.9,8.3-17.7,18.2C263.5,329.3,271.6,337.2,281.4,337.2z"/>
	<path class="st1" d="M518.2,791.9l-90.9-79.6c-11.4-10-28.8-8.8-38.8,2.6c-10,11.4-8.9,28.8,2.6,38.8l138.7,121.4l254.3-390.5
		c8.3-12.7,4.7-29.8-8-38.1c-12.7-8.3-29.8-4.7-38.1,8L518.2,791.9z"/>
	<path class="st1" d="M281.7,431l222.3-3c9.9-0.1,17.9-8.3,17.8-18.2c-0.1-9.9-8.3-17.9-18.2-17.8l-222.3,3
		c-9.9,0.1-17.9,8.3-17.8,18.2c0.1,9.9,8.2,17.8,18,17.8C281.6,431,281.7,431,281.7,431z"/>
	<path class="st1" d="M614.1,500.7c-0.1-9.9-8.2-17.7-18-17.7c-0.1,0-0.2,0-0.3,0l-303.6,4.3c-9.9,0.1-17.9,8.3-17.7,18.3
		c0.1,9.9,8.2,17.7,18,17.7c0.1,0,0.2,0,0.3,0l303.6-4.3C606.3,518.9,614.2,510.7,614.1,500.7z"/>
</g>
</svg>
