<?xml version="1.0" encoding="utf-8"?>
<!-- Generator: Adobe Illustrator 27.6.1, SVG Export Plug-In . SVG Version: 6.00 Build 0)  -->
<svg version="1.1" id="Ebene_1" xmlns="http://www.w3.org/2000/svg" xmlns:xlink="http://www.w3.org/1999/xlink" x="0px" y="0px"
	 viewBox="0 0 1024 1024" style="enable-background:new 0 0 1024 1024;" xml:space="preserve">
<style type="text/css">
	.st0{fill:#3D3D3D;}
</style>
<g id="icomoon-ignore">
</g>
<g>
	<path class="st0" d="M930.7,517.9v269.6c0,24.5-23.4,44.3-52.1,44.3H571.3v102.3h37.9c30.8,0,56.2,20,59.4,45.6H303.1
		c3.2-25.6,28.6-45.6,59.4-45.6h37.9V831.9H93.1C64.4,831.9,41,812,41,787.6V237.1c0-24.5,23.4-44.3,52.1-44.3h368.3
		c2.9-12.3,7-24.6,12.6-36H93.1c-48.6,0-88.1,36-88.1,80.3v550.5c0,44.3,39.5,80.3,88.1,80.3h271.3v30.3h-1.9
		c-52.8,0-95.7,39.1-95.7,87.1c0,16.8,14.4,30.5,32,30.5h374c17.7,0,32-13.7,32-30.5c0-48-43-87.1-95.7-87.1h-1.9v-30.3h271.3
		c48.6,0,88.1-36,88.1-80.3V478.7c-1.6,2-3.2,4.1-4.8,6.1C952.5,496.6,942,507.7,930.7,517.9z"/>
	<path class="st0" d="M863,560.1c-11.7,4.4-23.7,7.8-36,10.1v146.3H144.7V293.1c0-8.5,7.5-15.4,16.8-15.4h295.6
		c-1.7-11.9-2.2-24-1.9-36H161.5c-29.1,0-52.8,23.1-52.8,51.4v459.5H863V560.1z"/>
	
		<rect x="440.8" y="800.1" transform="matrix(1 -7.066155e-03 7.066155e-03 1 -5.7686 3.4371)" class="st0" width="85.5" height="36"/>
	<path class="st0" d="M749.5,546.1c72.8,0,141.3-28.4,192.8-79.9c51.5-51.5,79.9-120,79.9-192.8s-28.4-141.3-79.9-192.8
		c-51.5-51.5-120-79.9-192.8-79.9S608.2,29.2,556.7,80.7c-51.5,51.5-79.9,120-79.9,192.8c0,72.8,28.4,141.3,79.9,192.8
		C608.2,517.8,676.7,546.1,749.5,546.1z M585,109C628.9,65,687.3,40.8,749.5,40.8S870.1,65,914,109s68.1,102.4,68.1,164.5
		c0,62.1-24.2,120.6-68.1,164.5c-43.9,43.9-102.4,68.1-164.5,68.1S628.9,481.9,585,438C541,394,516.8,335.6,516.8,273.5
		S541,152.9,585,109z"/>
	<path class="st0" d="M620.2,309H714v93.8c0,19.6,15.9,35.5,35.5,35.5s35.5-15.9,35.5-35.5V309h93.8c19.6,0,35.5-15.9,35.5-35.5
		S898.4,238,878.8,238H785v-93.8c0-19.6-15.9-35.5-35.5-35.5S714,124.6,714,144.2V238h-93.8c-19.6,0-35.5,15.9-35.5,35.5
		S600.6,309,620.2,309z"/>
</g>
</svg>
