<!-- Generated by IcoMoon.io -->
<svg version="1.1" xmlns="http://www.w3.org/2000/svg" width="448" height="448" viewBox="0 0 448 448">
<title></title>
<g id="icomoon-ignore">
</g>
<path fill="#000" d="M174.2 162.4c3.1-5.3 11-9.8 17.3-9.8l44.9 0.4c1.3 0 2.7-0.9 3.1-2.2l18.8-58c0.3-1 0.1-2-0.5-2.9-0.6-0.8-1.6-1.3-2.6-1.3l-96.8-0.9c0 0-0.2 0-0.2 0-8.5 0-18.5 5.7-22.8 13l-64 108.6h-46.7c-9.1 0-16.6 7.4-16.6 16.6v51c0 9.1 7.4 16.6 16.6 16.6h51.5l56.6 100.2c3.9 6.8 12.6 12.4 20.8 13.3 0.1 0 0.2 0 0.3 0 1.4 0 2.6-0.9 3.1-2.2l20.7-63.8c0.4-1.3 0-2.6-1-3.5-1.8-1.5-3.3-3.2-4.2-4.8l-42.7-75.5c-3.1-5.4-3-14.6 0.2-19.9l44.2-74.9z"></path>
<path fill="#000" d="M423.3 209.2h-27.8l-60.4-106.8c-4.2-7.4-14.2-13.3-22.7-13.4l-8.2-0.1c0 0 0 0 0 0-1.4 0-2.6 0.9-3.1 2.2l-19.2 59.2c-0.5 1.7 0.3 3.4 2 4 4.9 1.8 9.4 5.3 11.5 9l42.7 75.5c3.1 5.4 3 14.5-0.2 19.9l-44.1 74.8c-3.1 5.3-11 9.8-17.3 9.8v0l-54.7-0.5c-1.5 0-2.7 0.9-3.1 2.2l-18.8 58c-0.3 1-0.1 2 0.5 2.9 0.6 0.8 1.6 1.3 2.6 1.3l106.6 1c0 0 0.2 0 0.2 0 8.5 0 18.5-5.7 22.8-13l60.2-102h30.6c9.2 0 16.6-7.4 16.6-16.6v-51c-0.1-8.9-7.6-16.4-16.7-16.4zM309.7 405.2v0 0 0z"></path>
</svg>
